<svg width="29" height="29" viewBox="0 0 29 29" fill="none" xmlns="http://www.w3.org/2000/svg">
<path d="M1.04224 12.7057C1.04224 7.18759 1.04224 4.42853 2.7565 2.71426C4.47077 1 7.22983 1 12.748 1H15.6744C21.1925 1 23.9517 1 25.6658 2.71426C27.3801 4.42853 27.3801 7.18759 27.3801 12.7057V15.6322C27.3801 21.1502 27.3801 23.9094 25.6658 25.6236C23.9517 27.3379 21.1925 27.3379 15.6744 27.3379H12.748C7.22983 27.3379 4.47077 27.3379 2.7565 25.6236C1.04224 23.9094 1.04224 21.1502 1.04224 15.6322V12.7057Z" stroke="#3C0E80" stroke-width="2"/>
<path d="M20.7954 9.77881C22.0076 9.77881 22.9902 8.79615 22.9902 7.58398C22.9902 6.37182 22.0076 5.38916 20.7954 5.38916C19.5832 5.38916 18.6006 6.37182 18.6006 7.58398C18.6006 8.79615 19.5832 9.77881 20.7954 9.77881Z" fill="#3C0E80"/>
<path d="M14.2114 18.5586C16.6358 18.5586 18.6011 16.5933 18.6011 14.1689C18.6011 11.7446 16.6358 9.7793 14.2114 9.7793C11.7871 9.7793 9.82178 11.7446 9.82178 14.1689C9.82178 16.5933 11.7871 18.5586 14.2114 18.5586Z" stroke="#3C0E80" stroke-width="2"/>
</svg>
