<svg width="29" height="29" viewBox="0 0 29 29" fill="none" xmlns="http://www.w3.org/2000/svg">
<path d="M1.04199 12.7057C1.04199 7.18759 1.04199 4.42853 2.75625 2.71426C4.47053 1 7.22958 1 12.7477 1H15.6742C21.1922 1 23.9514 1 25.6656 2.71426C27.3799 4.42853 27.3799 7.18759 27.3799 12.7057V15.6322C27.3799 21.1502 27.3799 23.9094 25.6656 25.6236C23.9514 27.3379 21.1922 27.3379 15.6742 27.3379H12.7477C7.22958 27.3379 4.47053 27.3379 2.75625 25.6236C1.04199 23.9094 1.04199 21.1502 1.04199 15.6322V12.7057Z" fill="black" stroke="white" stroke-width="2"/>
<path d="M20.7954 9.77881C22.0076 9.77881 22.9902 8.79615 22.9902 7.58398C22.9902 6.37182 22.0076 5.38916 20.7954 5.38916C19.5832 5.38916 18.6006 6.37182 18.6006 7.58398C18.6006 8.79615 19.5832 9.77881 20.7954 9.77881Z" fill="black"/>
<path d="M14.2109 18.5586C16.6353 18.5586 18.6006 16.5933 18.6006 14.1689C18.6006 11.7446 16.6353 9.7793 14.2109 9.7793C11.7866 9.7793 9.82129 11.7446 9.82129 14.1689C9.82129 16.5933 11.7866 18.5586 14.2109 18.5586Z" fill="black" stroke="white" stroke-width="2"/>
</svg>
