<svg width="30" height="30" viewBox="0 0 30 30" fill="none" xmlns="http://www.w3.org/2000/svg">
<path d="M26.4429 1.00391H3.64624C2.40111 1.00391 1.3125 1.90041 1.3125 3.13132V25.9779C1.3125 27.2159 2.40111 28.3188 3.64624 28.3188H26.4358C27.6881 28.3188 28.6273 27.2088 28.6273 25.9779V3.13132C28.6344 1.90041 27.6881 1.00391 26.4429 1.00391Z" fill="black" stroke="white" stroke-width="2"/>
<path d="M15.0709 16.8325V22.7658H13.1553V12.5933H15.0709V13.2875V16.453L15.0829 16.436C15.0734 16.5789 15.0709 16.7135 15.0709 16.8325ZM23.1159 16.6545V22.7658H21.2002V17.1101C21.2002 16.222 21.0465 15.3184 20.5662 14.6095C20.0426 13.8366 19.2204 13.4265 18.2139 13.4265C17.7732 13.4265 17.3838 13.5091 17.0427 13.6482C17.2739 13.3343 17.5232 13.0432 17.8531 12.8085C18.2351 12.5366 18.7726 12.3086 19.6022 12.3086C20.662 12.3086 21.5023 12.6519 22.0859 13.2881C22.6772 13.9328 23.1159 15.0001 23.1159 16.6545Z" fill="black" stroke="white" stroke-width="2"/>
<path d="M8.75553 22.7662H6.86523V12.5986H8.75553V22.7662Z" fill="black" stroke="white" stroke-width="2"/>
<path d="M7.94462 8.73615H7.91633C7.27466 8.73615 6.86523 8.30803 6.86523 7.64615C6.86523 7.29075 6.98669 7.02694 7.15339 6.85633C7.31625 6.68965 7.57629 6.55615 7.96584 6.55615C8.35408 6.55615 8.59735 6.68663 8.74941 6.84574C8.90781 7.01147 9.0337 7.27959 9.04519 7.65783C9.04257 8.00057 8.92465 8.26225 8.76005 8.43315C8.5995 8.59984 8.34141 8.73615 7.94462 8.73615Z" fill="black" stroke="white" stroke-width="2"/>
</svg>
