<svg width="17" height="21" viewBox="0 0 17 21" fill="none" xmlns="http://www.w3.org/2000/svg">
<path d="M8.22131 10.2766C8.78652 10.2766 9.27038 10.0754 9.67288 9.67288C10.0754 9.27038 10.2766 8.78652 10.2766 8.22131C10.2766 7.65609 10.0754 7.17224 9.67288 6.76973C9.27038 6.36723 8.78652 6.16598 8.22131 6.16598C7.65609 6.16598 7.17224 6.36723 6.76973 6.76973C6.36723 7.17224 6.16598 7.65609 6.16598 8.22131C6.16598 8.78652 6.36723 9.27038 6.76973 9.67288C7.17224 10.0754 7.65609 10.2766 8.22131 10.2766ZM8.22131 17.83C10.3109 15.9117 11.861 14.1689 12.8715 12.6017C13.882 11.0345 14.3873 9.64291 14.3873 8.42684C14.3873 6.55992 13.7921 5.03127 12.6017 3.84089C11.4113 2.65052 9.95121 2.05533 8.22131 2.05533C6.49141 2.05533 5.03127 2.65052 3.84089 3.84089C2.65052 5.03127 2.05533 6.55992 2.05533 8.42684C2.05533 9.64291 2.5606 11.0345 3.57113 12.6017C4.58167 14.1689 6.13173 15.9117 8.22131 17.83ZM8.22131 20.5533C5.46374 18.2068 3.40414 16.0273 2.04248 14.0148C0.680827 12.0023 0 10.1396 0 8.42684C0 5.85768 0.826413 3.81092 2.47924 2.28655C4.13206 0.762184 6.04609 0 8.22131 0C10.3965 0 12.3106 0.762184 13.9634 2.28655C15.6162 3.81092 16.4426 5.85768 16.4426 8.42684C16.4426 10.1396 15.7618 12.0023 14.4001 14.0148C13.0385 16.0273 10.9789 18.2068 8.22131 20.5533Z" fill="black"/>
</svg>
