<svg width="131" height="132" viewBox="0 0 131 132" fill="none" xmlns="http://www.w3.org/2000/svg">
<path d="M65.5113 131.934C101.68 131.934 131 102.614 131 66.4453C131 30.2768 101.68 0.956421 65.5113 0.956421C29.3428 0.956421 0.0224609 30.2768 0.0224609 66.4453C0.0224609 102.614 29.3428 131.934 65.5113 131.934Z" fill="#E6E6E6"/>
<path fill-rule="evenodd" clip-rule="evenodd" d="M65.5111 6.67981C98.5186 6.67981 125.277 33.4377 125.277 66.4453C125.277 99.4528 98.5186 126.211 65.5111 126.211C32.5035 126.211 5.74561 99.4528 5.74561 66.4453C5.74561 33.4377 32.5035 6.67981 65.5111 6.67981Z" fill="white"/>
<mask id="mask0_310_175" style="mask-type:luminance" maskUnits="userSpaceOnUse" x="5" y="6" width="121" height="121">
<path d="M65.5111 6.67981C98.5186 6.67981 125.277 33.4377 125.277 66.4453C125.277 99.4528 98.5186 126.211 65.5111 126.211C32.5035 126.211 5.74561 99.4528 5.74561 66.4453C5.74561 33.4377 32.5035 6.67981 65.5111 6.67981Z" fill="white"/>
</mask>
<g mask="url(#mask0_310_175)">
<path fill-rule="evenodd" clip-rule="evenodd" d="M65.3437 116.084L21.2205 39.3708H39.2266L65.3437 84.7784L91.6493 39.3708H109.802L65.3437 116.084Z" fill="#4DBA87" stroke="#4DBA87" stroke-width="0.755906" stroke-miterlimit="22.9256"/>
<path fill-rule="evenodd" clip-rule="evenodd" d="M65.3439 84.7784L39.2268 39.3708H55.556L65.344 56.3884L75.2062 39.3708H91.6495L65.3439 84.7784Z" fill="#435466" stroke="#435466" stroke-width="0.755906" stroke-miterlimit="22.9256"/>
</g>
</svg>
