<svg width="21" height="21" viewBox="0 0 21 21" fill="none" xmlns="http://www.w3.org/2000/svg">
<path fill-rule="evenodd" clip-rule="evenodd" d="M17.5588 3.17223C16.6087 2.22168 15.48 1.46843 14.2376 0.955859C12.9952 0.443285 11.6637 0.181507 10.3197 0.185594C4.67953 0.185594 0.0880853 4.7541 0.0857914 10.3704C0.0832963 12.1588 0.554706 13.9159 1.45203 15.4629L0 20.7388L5.42505 19.3226C6.92672 20.1361 8.60773 20.5619 10.3156 20.5613H10.3197C15.9595 20.5613 20.5505 15.9923 20.5532 10.3764C20.5567 9.03704 20.2937 7.71036 19.7796 6.47357C19.2655 5.23677 18.5106 4.11456 17.5588 3.17223ZM10.3197 18.8422H10.3161C8.79357 18.8427 7.29874 18.4352 5.98705 17.6623L5.67646 17.4787L2.45721 18.3192L3.3165 15.1954L3.11418 14.8743C2.26287 13.5265 1.81183 11.9646 1.81355 10.3704C1.81355 5.70331 5.63104 1.90601 10.323 1.90601C12.5737 1.90199 14.7339 2.79215 16.3284 4.38071C17.9229 5.96927 18.8211 8.12612 18.8255 10.3769C18.8236 15.0445 15.008 18.8422 10.3197 18.8422ZM14.9851 12.5024C14.7295 12.3748 13.4711 11.7592 13.238 11.6743C13.005 11.5894 12.8329 11.5468 12.6627 11.8018C12.4925 12.0569 12.0021 12.6276 11.853 12.7997C11.7039 12.9717 11.5548 12.9905 11.2992 12.863C11.0437 12.7354 10.2193 12.4671 9.24253 11.6C8.48234 10.9251 7.96943 10.092 7.82032 9.83735C7.67122 9.58273 7.80427 9.44464 7.93226 9.31801C8.04742 9.20378 8.1878 9.02073 8.3158 8.87208C8.4438 8.72344 8.48647 8.617 8.57134 8.44726C8.65622 8.27751 8.61401 8.12886 8.55024 8.00178C8.48647 7.8747 7.97493 6.62178 7.76206 6.11208C7.55423 5.61568 7.34365 5.68312 7.18675 5.67532C7.03765 5.66798 6.86561 5.66615 6.69632 5.66615C6.5669 5.66952 6.43957 5.69953 6.32227 5.75431C6.20497 5.80909 6.10023 5.88746 6.01458 5.98454C5.78014 6.23962 5.1195 6.85622 5.1195 8.10776C5.1195 9.3593 6.03706 10.5705 6.16368 10.7402C6.2903 10.91 7.96667 13.4805 10.5317 14.5829C11.008 14.7869 11.4947 14.9658 11.9897 15.1188C12.6022 15.3124 13.1596 15.2853 13.6 15.2197C14.0914 15.1468 15.114 14.604 15.3264 14.0095C15.5388 13.4149 15.5393 12.9057 15.4755 12.7997C15.4117 12.6937 15.2411 12.6295 14.9851 12.5024Z" fill="black"/>
</svg>
