<svg width="27" height="27" viewBox="0 0 27 27" fill="none" xmlns="http://www.w3.org/2000/svg">
<path fill-rule="evenodd" clip-rule="evenodd" d="M22.5006 3.82727C21.2831 2.60919 19.8367 1.64395 18.2447 0.987112C16.6526 0.330277 14.9464 -0.00517728 13.2242 6.04004e-05C5.99656 6.04004e-05 0.112876 5.85434 0.109937 13.0514C0.10674 15.3431 0.710825 17.5947 1.8607 19.5771L0 26.3379L6.95189 24.523C8.87621 25.5655 11.0303 26.1111 13.2189 26.1104H13.2242C20.4512 26.1104 26.3343 20.2555 26.3378 13.059C26.3422 11.3427 26.0052 9.64263 25.3465 8.05775C24.6877 6.47287 23.7203 5.03482 22.5006 3.82727ZM13.2242 23.9075H13.2195C11.2685 23.9081 9.35293 23.386 7.67207 22.3954L7.27406 22.1603L3.14878 23.2373L4.24992 19.2343L3.99065 18.8228C2.89974 17.0956 2.32175 15.0942 2.32396 13.0514C2.32396 7.0707 7.21586 2.20468 13.2283 2.20468C16.1125 2.19953 18.8807 3.34022 20.9239 5.37587C22.9672 7.41151 24.1182 10.1754 24.1238 13.0596C24.1215 19.0409 19.2319 23.9075 13.2242 23.9075ZM19.2025 15.7833C18.8751 15.6199 17.2624 14.831 16.9638 14.7222C16.6651 14.6134 16.4447 14.5588 16.2266 14.8856C16.0085 15.2125 15.38 15.9438 15.1889 16.1643C14.9979 16.3848 14.8068 16.4089 14.4793 16.2454C14.1519 16.082 13.0954 15.7381 11.8438 14.627C10.8696 13.7622 10.2124 12.6945 10.0213 12.3682C9.83024 12.042 10.0007 11.865 10.1648 11.7027C10.3123 11.5564 10.4922 11.3218 10.6562 11.1313C10.8203 10.9408 10.8749 10.8044 10.9837 10.5869C11.0925 10.3694 11.0384 10.1789 10.9567 10.0161C10.8749 9.85322 10.2194 8.24767 9.94665 7.59452C9.68033 6.95842 9.41048 7.04484 9.20942 7.03484C9.01836 7.02544 8.79789 7.02309 8.58096 7.02309C8.41512 7.0274 8.25195 7.06586 8.10164 7.13606C7.95133 7.20626 7.8171 7.30669 7.70734 7.43109C7.40693 7.75796 6.56035 8.54809 6.56035 10.1519C6.56035 11.7557 7.73615 13.3077 7.89841 13.5252C8.06067 13.7428 10.2088 17.0367 13.4958 18.4495C14.1061 18.7108 14.7298 18.9401 15.3641 19.1361C16.149 19.3842 16.8633 19.3495 17.4277 19.2655C18.0573 19.172 19.3677 18.4765 19.6399 17.7146C19.9121 16.9527 19.9127 16.3001 19.831 16.1643C19.7493 16.0285 19.5306 15.9462 19.2025 15.7833Z" fill="#3C0E80"/>
</svg>
